<svg width="165" height="191" viewBox="0 0 165 191" fill="none" xmlns="http://www.w3.org/2000/svg">
<g clip-path="url(#clip0_2255_17951)">
<path d="M75.0425 33.8242C75.0425 33.8242 83.5826 34.242 84.4619 36.45C85.3346 38.6514 86.8601 39.109 88.279 48.1467C89.7046 57.1845 87.3797 57.8476 88.4056 61.5874C89.4314 65.3271 82.197 46.0381 78.1667 42.8355C74.1365 39.6328 77.9003 40.1898 75.0425 33.8309V33.8242Z" fill="url(#paint0_linear_2255_17951)"/>
<path d="M44.1796 43.7237C44.1796 43.7237 65.2034 91.1671 79.9854 108.533C79.9854 108.533 89.0118 118.068 91.0369 118.36L100.55 118.652L106.139 116.45L104.16 95.3246C104.16 95.3246 102.708 64.6969 65.1701 23.0953C65.1701 23.0953 38.5172 19.2694 44.1862 43.7171L44.1796 43.7237Z" fill="#F5AAE0"/>
<path d="M45.8452 47.1785C45.8452 47.1785 41.1954 54.3265 42.4811 56.3157C43.7668 58.305 43.2538 59.8035 49.7888 66.2354C56.3238 72.6673 57.7227 71.6594 60.6738 74.1924C64.4176 77.4017 52.3602 60.2014 51.3676 54.9631C50.4083 49.917 49.3625 53.1993 45.8518 47.1719L45.8452 47.1785Z" fill="url(#paint1_linear_2255_17951)"/>
<path d="M48.9691 53.0797C47.7034 52.9935 46.9839 54.4921 46.7708 55.7387C46.5243 57.1709 46.4577 58.6363 46.5776 60.0818" stroke="white" stroke-width="0.56" stroke-miterlimit="10"/>
<path d="M50.9945 56.7529C49.9886 59.2793 49.9753 62.1769 50.9546 64.7099" stroke="white" stroke-width="0.56" stroke-miterlimit="10"/>
<path d="M53.8253 63.4102C53.6055 64.9618 54.2383 66.6062 55.4508 67.6008" stroke="white" stroke-width="0.56" stroke-miterlimit="10"/>
<path d="M67.2021 73.8015C67.2021 73.8015 76.0687 88.7672 86.0876 85.1003C86.0876 85.1003 91.2104 82.0369 87.6798 68.2051" stroke="#B86BAC" stroke-width="0.96" stroke-miterlimit="10"/>
<path d="M68.2677 72.9727C67.1352 73.3572 66.3025 74.4911 66.2759 75.678" stroke="#B86BAC" stroke-width="0.96" stroke-miterlimit="10"/>
<path d="M89.2117 68.8609C88.3524 68.158 87.0201 68.105 86.1074 68.7416" stroke="#B86BAC" stroke-width="0.96" stroke-miterlimit="10"/>
<path d="M86.314 96.4779C87.2599 98.0229 89.6381 98.0561 91.1502 97.0614C91.8897 96.5774 92.5292 95.8281 92.5958 94.9528C92.6624 94.0776 91.9363 93.1294 91.057 93.2023C90.1777 93.7925 90.4508 95.3043 91.3634 95.8347C92.276 96.3718 93.4685 96.1199 94.3811 95.5761C95.4669 94.9263 96.3396 93.7726 96.293 92.5127C96.2463 91.2529 95.0073 90.0593 93.7749 90.3511" stroke="#B86BAC" stroke-width="0.96" stroke-miterlimit="10"/>
<path d="M24.9411 10.8154C24.8479 10.8817 24.7479 10.948 24.6547 11.021C20.7577 13.9518 27.9588 19.8134 30.337 23.0227C31.0964 24.0505 31.989 25.6419 32.855 27.3327C33.9942 25.9999 35.2132 24.6937 36.4856 23.4272C35.5197 22.4657 34.4538 21.6037 33.2347 20.8876C29.5109 18.3414 27.5191 14.1839 24.9478 10.8154H24.9411Z" fill="#5040F6"/>
<path d="M53.2059 12.2076C48.343 6.81017 42.2143 0.166115 41.4349 0.0136063C40.1093 -0.238364 40.1692 3.0704 37.6179 4.86735C35.1264 6.62451 28.8646 8.02361 24.9409 10.8218C27.5189 14.1902 29.5041 18.3478 33.2279 20.894C34.447 21.6101 35.5195 22.4721 36.4787 23.4336C41.295 18.6727 47.004 14.5815 53.2059 12.2143V12.2076Z" fill="url(#paint2_linear_2255_17951)"/>
<path d="M32.0887 7.75849C32.0887 7.75849 38.1107 9.07802 41.2816 7.54631C44.4525 6.01459 40.6022 3.44184 39.8161 3.87948C39.03 4.31711 37.831 5.84882 36.5319 6.41907C35.2329 6.98932 32.082 7.76512 32.082 7.76512L32.0887 7.75849Z" fill="url(#paint3_linear_2255_17951)"/>
<path d="M36.4787 23.4268C35.1997 24.6866 33.9873 25.9929 32.8481 27.3323C34.6867 30.9394 36.3988 35.0041 36.3988 35.0041L41.8213 31.2246C40.3024 28.3468 38.6703 25.6149 36.4787 23.4268Z" fill="#F58500"/>
<path d="M53.2062 12.208C47.0043 14.5752 41.2953 18.6664 36.479 23.4273C38.6707 25.6155 40.3027 28.354 41.8216 31.2251L59.3081 19.051C59.3081 19.051 56.5569 15.9279 53.1995 12.208H53.2062Z" fill="#F79F30"/>
<path d="M45.8449 47.1788C45.8449 47.1788 28.0718 49.4664 24.7277 45.3685C21.3836 41.2707 45.7383 25.2242 54.0586 20.6423C62.3855 16.0604 73.5636 5.87554 73.0373 5.31192C72.5111 4.75493 77.6604 4.03881 76.6479 11.8101C75.6353 19.5814 71.292 27.4853 69.3335 28.5661C69.3335 28.5661 57.3627 25.821 52.6863 27.7572C48.0099 29.6934 41.7747 33.7182 45.8449 47.1788Z" fill="url(#paint4_linear_2255_17951)"/>
<path d="M54.645 26.6823C54.645 26.6823 63.5582 34.2879 76.0153 30.621C88.4657 26.9476 87.3399 11.8691 87.3399 11.8691C87.3399 11.8691 82.1239 20.8937 71.1923 23.0884C60.2674 25.2832 54.645 26.6823 54.645 26.6823Z" fill="url(#paint5_linear_2255_17951)"/>
<path d="M57.3096 26.1125C57.3096 26.1125 75.0826 35.9393 86.7603 15.417" stroke="white" stroke-width="0.59" stroke-miterlimit="10"/>
<path d="M88.8389 59.2997C88.8389 59.2997 89.7981 52.8346 91.4302 53.2325C93.0623 53.6303 94.1614 65.6055 91.5834 65.5724" fill="#F5AAE0"/>
<path d="M79.026 59.5451C83.8235 59.5451 87.7127 55.6739 87.7127 50.8985C87.7127 46.1231 83.8235 42.252 79.026 42.252C74.2285 42.252 70.3394 46.1231 70.3394 50.8985C70.3394 55.6739 74.2285 59.5451 79.026 59.5451Z" fill="#2EC9FF" stroke="white" stroke-width="0.68" stroke-miterlimit="10"/>
<path d="M72.2847 56.9385C72.2847 56.9385 84.4087 64.0202 95.5934 62.1635C95.5934 62.1635 89.285 67.939 76.9677 66.4802" fill="#F5AAE0"/>
<path d="M72.2847 56.9385C72.2847 56.9385 84.4087 64.0202 95.5934 62.1635C95.5934 62.1635 89.2849 67.939 76.9677 66.4802" stroke="#B86BAC" stroke-width="0.96" stroke-miterlimit="10"/>
<path d="M62.0924 68.7082C66.8899 68.7082 70.7791 64.837 70.7791 60.0616C70.7791 55.2862 66.8899 51.415 62.0924 51.415C57.2949 51.415 53.4058 55.2862 53.4058 60.0616C53.4058 64.837 57.2949 68.7082 62.0924 68.7082Z" fill="#2EC9FF" stroke="white" stroke-width="0.68" stroke-miterlimit="10"/>
<path d="M70.153 58.0136C70.153 58.0136 71.7318 55.9713 73.8302 56.2365C73.8302 56.2365 72.7977 54.9369 71.2255 55.1557C69.6534 55.3679 68.8673 56.946 70.153 58.0136Z" fill="#3D3D3D"/>
<path d="M60.0273 43.8096C60.0273 43.8096 59.2279 42.742 58.4752 42.6293C57.7224 42.5165 53.3325 43.9289 54.3983 47.357C54.3983 47.357 55.6773 44.6981 60.0207 43.8096H60.0273Z" fill="#F7366D"/>
<path d="M75.5888 39.7051C75.5888 39.7051 74.7895 38.6375 74.0367 38.5248C73.2839 38.4121 68.894 39.8244 69.9598 43.2525C69.9598 43.2525 71.2389 40.5936 75.5822 39.7051H75.5888Z" fill="#F7366D"/>
<path d="M61.8794 58.2713C61.8794 58.2713 63.8779 62.6609 66.3959 61.5668C68.9207 60.4793 65.43 55.3604 65.43 55.3604" stroke="#231F20" stroke-width="0.56" stroke-miterlimit="10"/>
<path d="M74.1167 51.8728C74.1167 51.8728 76.1152 56.2624 78.6332 55.1683C81.158 54.0809 77.6673 48.9619 77.6673 48.9619" stroke="#231F20" stroke-width="0.56" stroke-miterlimit="10"/>
<path d="M62.0128 71.9713C62.0128 71.9713 52.6467 68.3575 51.1145 71.5668C49.589 74.7695 61.3866 83.31 64.2578 78.1114" fill="#F5AAE0"/>
<path d="M78.8862 38.1274C80.6116 37.4577 82.6966 37.8291 84.0756 39.0557" stroke="white" stroke-width="0.56" stroke-miterlimit="10"/>
<path d="M81.5908 40.9785C82.6567 40.7066 83.8691 41.257 84.3687 42.2317" stroke="white" stroke-width="0.56" stroke-miterlimit="10"/>
<path d="M83.043 176.068H134.883C134.257 161.42 132.985 135.467 131.646 129.407C129.754 120.84 118.069 97.9834 118.069 97.9834L111.614 99.3958C111.614 99.3958 118.223 138.63 111.528 161.102C111.528 161.102 83.7958 115.243 80.6981 111.437L67.6748 118.957C67.6748 118.957 77.827 149.472 81.6907 161.181C83.0697 165.366 83.3161 170.803 83.0563 176.068H83.043Z" fill="url(#paint6_linear_2255_17951)"/>
<path d="M50.1015 123.657C50.1015 123.657 53.1592 120.455 47.397 121.231C41.6347 122.006 36.6252 124.824 39.4098 128.856C42.1943 132.881 50.1015 123.657 50.1015 123.657Z" fill="#A2A4A6"/>
<path d="M41.8281 124.016L43.267 131.025L49.5555 126.376L48.7495 122.285C46.6644 123.479 44.2263 124.036 41.8281 124.022V124.016Z" fill="#CE85AE"/>
<path d="M48.7493 122.278L46.6043 111.371C46.6043 111.371 46.6909 110.144 46.9374 107.485C47.1838 104.826 45.9448 99.2961 45.252 99.1701C44.5592 99.0442 41.6947 97.2008 40.2825 95.3375C38.8702 93.4743 37.0982 92.5725 37.0982 92.5725C34.8733 93.8324 32.4751 96.2062 32.4751 96.2062C32.4751 96.2062 31.1028 96.1266 25.294 91.2463C19.4851 86.3661 13.5696 81.2338 11.9642 81.4261C10.3521 81.6184 9.97906 83.6872 12.9168 86.5517C15.8479 89.4162 26.6596 98.6463 26.6596 98.6463L22.9225 99.0707C22.9225 99.0707 18.5525 97.665 16.1743 95.4436C13.7961 93.2223 2.45817 87.5198 0.386425 89.708C-1.68532 91.8895 4.93627 96.2062 12.0708 99.2166C19.2053 102.227 27.0926 107.472 27.0926 107.472C27.0926 107.472 17.8397 108.526 17.5732 112.12C17.3068 115.714 27.9786 115.416 27.9786 115.416C27.9786 115.416 28.698 117.153 32.162 119.049C35.626 120.939 40.8487 119.242 40.8487 119.242L41.8279 124.016C44.2261 124.029 46.6642 123.472 48.7493 122.278Z" fill="#F5AAE0"/>
<path d="M32.4819 96.2061C32.4819 96.2061 30.6699 98.4605 26.6597 98.6462" stroke="#B86BAC" stroke-width="0.96" stroke-miterlimit="10"/>
<path d="M22.9224 99.0703C22.9224 99.0703 23.0556 102.213 27.4256 102.339C31.7956 102.465 36.1389 99.7002 36.1389 99.7002L38.7236 102.419C38.7236 102.419 36.7451 107.233 38.9367 109.302" stroke="#B86BAC" stroke-width="0.96" stroke-miterlimit="10"/>
<path d="M23.6484 109.58C23.6484 109.58 35.1263 111.099 35.0197 113.234C34.9065 115.369 27.9851 115.415 27.9851 115.415" stroke="#B86BAC" stroke-width="0.96" stroke-miterlimit="10"/>
<path d="M41.7213 133.067C42.3342 132.397 36.8051 137.728 37.5312 139.253C38.2573 140.778 42.554 139.757 47.6967 136.448C52.8461 133.14 41.7213 133.067 41.7213 133.067Z" fill="#CE6128"/>
<path d="M53.0926 134.89L50.6812 122.504C50.6812 122.504 44.2861 129.725 41.9945 129.042C39.7029 128.359 38.6504 126.648 38.6504 126.648L41.9612 140.911C41.9612 140.911 47.7567 140.778 53.0926 134.89Z" fill="#C9CACC"/>
<path d="M67.6615 118.957L56.3968 146.594L52.7462 131.986C52.7462 131.986 49.7885 137.908 37.5312 139.254C37.5312 139.254 44.7457 168.873 50.0083 184.297C53.1859 181.127 57.5359 179.257 62.0458 180.457C68.4941 165.339 76.115 142.337 76.115 142.337L67.6615 118.95V118.957Z" fill="#F79F30"/>
<path d="M159.358 137.39C157.02 137.934 154.002 139.638 152.137 141.886C156.786 144.187 161.01 145.712 163.262 145.115C164.974 144.664 165.28 141.508 164.78 137.046C162.915 136.873 160.843 137.145 159.358 137.384V137.39Z" fill="#C9CACC"/>
<path d="M151.564 103.255C151.564 103.255 155.488 99.6881 154.728 99.0051C153.969 98.3222 149.572 97.4668 149.572 97.4668L151.564 103.262V103.255Z" fill="#CE6128"/>
<path d="M148.433 91.744C148.433 91.744 149.998 89.2575 144.876 88.3159C139.753 87.3743 134.803 89.7946 138.107 92.9906C141.412 96.1866 148.433 91.744 148.433 91.744Z" fill="#A2A4A6"/>
<path d="M140.845 94.6544L146.368 94.0112L144.549 88.9121C143.284 90.172 141.605 90.9013 139.773 91.2528L140.839 94.6544H140.845Z" fill="#CE85AE"/>
<path d="M153.249 60.9502C150.245 58.941 143.696 65.5254 143.696 65.5254C143.696 65.5254 144.423 56.1097 146.454 48.6633C148.486 41.2236 149.172 33.3727 146.168 33.6446C143.164 33.9164 140.659 46.316 140.945 49.5452C141.232 52.781 139.64 57.0712 139.64 57.0712L136.995 59.7301C136.995 59.7301 136.389 45.5667 135.936 41.502C135.483 37.4374 133.624 36.4494 132.472 37.5899C131.319 38.7304 131.726 46.5282 131.992 54.0939C132.259 61.6597 131.473 62.7803 131.473 62.7803C131.473 62.7803 128.108 63.1914 125.744 64.1528C125.744 64.1528 125.357 66.0957 125.957 68.3501C126.556 70.6046 126.25 73.9863 125.917 74.6096C125.584 75.2263 129.194 79.6158 131.446 81.0614C133.698 82.5135 137.088 82.6992 137.088 82.6992L139.78 91.2529C141.611 90.9015 143.29 90.1721 144.556 88.9122L142.417 82.9047C142.417 82.9047 149.059 80.5243 149.705 76.6386C150.351 72.7596 149.419 71.1218 149.419 71.1218C149.419 71.1218 156.247 62.9527 153.242 60.9435L153.249 60.9502Z" fill="#F5AAE0"/>
<path d="M152.41 100.928L148.2 89.5957C148.2 89.5957 149.172 92.069 143.777 92.8315C138.381 93.5874 137.328 91.9563 137.328 91.9563L140.546 102.857C140.546 102.857 147.287 104.681 152.41 100.928Z" fill="#C9CACC"/>
<path d="M139.58 100.496L145.295 120.051C145.295 120.051 124.658 99.4488 123.179 98.8056C121.694 98.1624 118.063 97.9834 118.063 97.9834L131.639 129.407C131.639 129.407 142.744 137.238 152.137 141.886C154.002 139.638 157.026 137.934 159.358 137.39C160.843 137.151 162.922 136.88 164.78 137.052C163.302 123.804 154.728 99.0045 154.728 99.0045C154.728 99.0045 151.031 104.608 139.58 100.496Z" fill="#F79F30"/>
<path d="M50.0083 184.296C51.647 189.103 52.9993 190.648 54.1918 190.94C56.5966 191.524 60.3137 187.678 62.0457 180.457C57.5359 179.25 53.1792 181.127 50.0083 184.296Z" fill="#C9CACC"/>
<path d="M56.397 146.594L57.5095 154.113C57.5095 154.113 61.5996 156.069 61.3532 165.465" stroke="#CE6128" stroke-width="0.56" stroke-miterlimit="10"/>
<path d="M57.5093 154.113L56.9697 150.652C56.9697 150.652 62.712 149.518 63.9177 161.241" stroke="#CE6128" stroke-width="0.56" stroke-miterlimit="10"/>
<path d="M150.718 133.849C147.034 130.309 145.295 120.051 145.295 120.051C145.295 120.051 143.097 121.967 143.45 126.522" stroke="#CE6128" stroke-width="0.56" stroke-miterlimit="10"/>
<path d="M131.639 129.407C131.639 129.407 133.644 128.465 131.892 122.537" stroke="#CE6128" stroke-width="0.56" stroke-miterlimit="10"/>
<path d="M113.973 98.521L111.608 99.3962L107.385 90.0137L98.2915 103.56L99.797 115.224L93.9082 107.022C93.9082 107.022 74.9161 103.229 75.9753 103.852C77.0345 104.475 77.8073 112.943 77.8073 112.943L82.7368 114.733L83.6827 116.252L111.521 161.096C111.521 161.096 119.229 147.562 113.973 98.5144V98.521Z" fill="#C9CACC"/>
<path d="M131.473 62.7806C131.473 62.7806 134.37 62.7541 136.995 59.7305" stroke="#B86BAC" stroke-width="0.96" stroke-miterlimit="10"/>
<path d="M139.64 57.0713C139.64 57.0713 142.038 59.1136 139.44 62.6146C136.842 66.1157 131.972 67.8065 131.972 67.8065L132.525 71.5065C132.525 71.5065 137.555 72.9321 137.828 75.9293" stroke="#B86BAC" stroke-width="0.96" stroke-miterlimit="10"/>
<path d="M147.494 64.126C147.494 64.126 141.598 74.0456 143.357 75.2856C145.116 76.5256 149.426 71.1281 149.426 71.1281" stroke="#B86BAC" stroke-width="0.96" stroke-miterlimit="10"/>
<path d="M52.1005 61.9248C52.1005 61.9248 45.1791 67.1035 44.1199 68.0517C43.0541 68.9932 47.1709 75.929 49.3226 76.0285C51.4743 76.128 46.225 71.8113 45.6654 69.7027C45.1058 67.5941 53.0197 63.7748 53.0197 63.7748L52.1005 61.9248Z" fill="#3D3D3D"/>
<path d="M94.0613 105.94L88.1059 117.073L74.3365 112.478L74.1699 104.548L94.0613 105.94Z" fill="#E5E5E5"/>
<path d="M98.7441 103.056L105.306 108.5L112.394 95.8678L107.264 90.1123L98.7441 103.056Z" fill="#E5E5E5"/>
<path d="M87.2329 116.503L95.9462 134.519L102.208 120.561L116.49 126.244L110.002 106.285L102.148 118.108L87.2329 116.503Z" fill="#F74066"/>
<path d="M106.535 132.372C107.333 132.331 107.932 131.385 107.874 130.259C107.816 129.132 107.123 128.252 106.326 128.293C105.528 128.333 104.929 129.279 104.987 130.406C105.045 131.532 105.738 132.413 106.535 132.372Z" fill="#E5E5E5"/>
<path d="M108.597 144.293C109.394 144.252 109.993 143.306 109.936 142.18C109.878 141.053 109.184 140.173 108.387 140.214C107.59 140.254 106.99 141.2 107.048 142.327C107.106 143.453 107.799 144.333 108.597 144.293Z" fill="#E5E5E5"/>
</g>
<defs>
<linearGradient id="paint0_linear_2255_17951" x1="52.3694" y1="21.5347" x2="92.4762" y2="54.453" gradientUnits="userSpaceOnUse">
<stop stop-color="#F79817"/>
<stop offset="1" stop-color="#F7019D"/>
</linearGradient>
<linearGradient id="paint1_linear_2255_17951" x1="49.1508" y1="21.4089" x2="52.2967" y2="73.1696" gradientUnits="userSpaceOnUse">
<stop stop-color="#F79817"/>
<stop offset="1" stop-color="#F7019D"/>
</linearGradient>
<linearGradient id="paint2_linear_2255_17951" x1="2.28275" y1="22.4146" x2="93.3616" y2="-4.20772" gradientUnits="userSpaceOnUse">
<stop stop-color="#5055F7"/>
<stop offset="1" stop-color="#9055F7"/>
</linearGradient>
<linearGradient id="paint3_linear_2255_17951" x1="32.4183" y1="-8.93902" x2="37.567" y2="8.06794" gradientUnits="userSpaceOnUse">
<stop stop-color="#5055F7"/>
<stop offset="1" stop-color="#9055F7"/>
</linearGradient>
<linearGradient id="paint4_linear_2255_17951" x1="-0.356955" y1="43.5754" x2="103.393" y2="13.2462" gradientUnits="userSpaceOnUse">
<stop stop-color="#5055F7"/>
<stop offset="1" stop-color="#9055F7"/>
</linearGradient>
<linearGradient id="paint5_linear_2255_17951" x1="64.7157" y1="8.43408" x2="90.3144" y2="53.8869" gradientUnits="userSpaceOnUse">
<stop stop-color="#F79817"/>
<stop offset="1" stop-color="#F7019D"/>
</linearGradient>
<linearGradient id="paint6_linear_2255_17951" x1="67.6615" y1="137.026" x2="134.877" y2="137.026" gradientUnits="userSpaceOnUse">
<stop stop-color="#5055F7"/>
<stop offset="1" stop-color="#9055F7"/>
</linearGradient>
<clipPath id="clip0_2255_17951">
<rect width="165" height="191" fill="white"/>
</clipPath>
</defs>
</svg>
