<svg width="143" height="25" viewBox="0 0 143 25" fill="none" xmlns="http://www.w3.org/2000/svg">
<path d="M119.499 4.55772C120.36 3.25306 121.799 1.23158 121.299 0.796693C120.651 0.240836 118.948 0.207845 117.388 3.03212C116.564 4.89814 116.02 6.87513 115.772 8.89961C116.198 9.03679 116.612 9.20831 117.01 9.41248C117.741 7.74554 118.572 6.12433 119.499 4.55772Z" fill="url(#paint0_linear_2202_8672)"/>
<path d="M124.295 2.05897C124.295 2.05897 123.568 1.28616 121.682 2.89174C120.354 4.02245 118.083 7.7425 117.083 9.45007C117.614 9.722 118.122 10.0299 118.63 10.3228C120.59 8.45732 125.215 3.79252 124.295 2.05897Z" fill="url(#paint1_linear_2202_8672)"/>
<path d="M40.5045 23.4579H36.0776V20.7586C35.4289 21.8185 34.5053 22.6831 33.4048 23.2604C32.3043 23.8378 31.0681 24.1064 29.8272 24.0377C23.8817 24.0377 20.4006 19.3579 20.4006 14.0643C20.4006 8.15479 24.6246 4.12483 29.8272 4.12483C31.0709 4.06267 32.3083 4.33772 33.4085 4.92093C34.5088 5.50413 35.431 6.37379 36.0776 7.43797V4.70567H40.5045V23.4579ZM24.8275 14.1672C24.8135 14.915 24.9494 15.6579 25.2272 16.3522C25.505 17.0466 25.9191 17.6782 26.4451 18.2099C26.971 18.7415 27.5982 19.1624 28.2895 19.4476C28.9808 19.7329 29.7222 19.8768 30.4701 19.8708C31.4961 19.9076 32.5105 19.6424 33.3873 19.1082C34.2641 18.574 34.9649 17.7943 35.4028 16.8656C35.8231 16.049 36.065 15.1524 36.1126 14.2352C36.1481 13.3311 35.9747 12.4311 35.6057 11.6049C35.1779 10.5965 34.4556 9.74076 33.5334 9.14962C32.6112 8.55848 31.532 8.25949 30.4371 8.29176C29.6808 8.29195 28.9325 8.44491 28.2368 8.74145C27.5412 9.03799 26.9126 9.47201 26.3888 10.0175C25.865 10.5629 25.4568 11.2085 25.1887 11.9156C24.9206 12.6227 24.7981 13.3767 24.8285 14.1323L24.8275 14.1672Z" fill="url(#paint2_linear_2202_8672)"/>
<path d="M42.096 4.70584H46.2519V7.06223C46.8117 6.13747 47.6073 5.37814 48.5572 4.86202C49.507 4.3459 50.577 4.09154 51.6575 4.12499C52.5101 4.1006 53.358 4.2586 54.1446 4.58843C54.9311 4.91826 55.6382 5.4123 56.2184 6.03749C56.6557 6.5609 57.0299 7.13404 57.3331 7.74506C57.695 7.09067 58.15 6.49225 58.6837 5.96851C60.0116 4.77466 61.7359 4.11701 63.5215 4.12329C65.3072 4.12957 67.0268 4.79935 68.3462 6.00251C70.0358 7.77905 70.3737 9.31565 70.3737 13.1757V23.457H65.9479V13.3476C66.033 12.1394 65.7752 10.9317 65.204 9.86351C64.9279 9.34712 64.5039 8.92492 63.9863 8.65099C63.4687 8.37706 62.8811 8.26386 62.2988 8.32591C61.6583 8.28561 61.0191 8.4239 60.4525 8.72538C59.8859 9.02686 59.4141 9.4797 59.0896 10.0335C58.5938 11.003 58.3719 12.0894 58.4478 13.1757V23.457H54.0219V13.1767C54.0738 12.11 53.877 11.046 53.4471 10.0685C53.1585 9.51895 52.7192 9.06312 52.1807 8.75447C51.6422 8.44582 51.0268 8.29715 50.4068 8.32591C49.7678 8.29286 49.1323 8.43837 48.5713 8.74614C48.0103 9.05391 47.5461 9.51178 47.2306 10.0685C46.7289 11.0743 46.485 12.1891 46.5208 13.3126V23.457H42.095L42.096 4.70584Z" fill="url(#paint3_linear_2202_8672)"/>
<path d="M91.5983 23.4579H87.1725V20.7586C86.5237 21.8185 85.6001 22.6831 84.4997 23.2604C83.3992 23.8378 82.1629 24.1064 80.922 24.0377C74.9766 24.0377 71.4955 19.3579 71.4955 14.0643C71.4955 8.15479 75.7194 4.12483 80.922 4.12483C82.1657 4.06267 83.4031 4.33772 84.5034 4.92093C85.6036 5.50413 86.5258 6.37379 87.1725 7.43797V4.70567H91.5983V23.4579ZM75.9213 14.1672C75.9073 14.915 76.0432 15.6579 76.321 16.3522C76.5988 17.0466 77.013 17.6782 77.5389 18.2099C78.0649 18.7415 78.692 19.1624 79.3833 19.4476C80.0746 19.7329 80.8161 19.8768 81.5639 19.8708C82.5899 19.9075 83.6042 19.6423 84.481 19.1081C85.3579 18.5739 86.0587 17.7942 86.4966 16.8656C86.9163 16.0488 87.1578 15.1523 87.2054 14.2352C87.241 13.3311 87.0675 12.431 86.6986 11.6049C86.2707 10.5965 85.5484 9.74076 84.6262 9.14962C83.704 8.55848 82.6248 8.25949 81.5299 8.29176C80.7737 8.29195 80.0253 8.44491 79.3297 8.74145C78.634 9.03799 78.0055 9.47201 77.4817 10.0175C76.9579 10.5629 76.5497 11.2085 76.2815 11.9156C76.0134 12.6227 75.8909 13.3767 75.9213 14.1323V14.1672Z" fill="url(#paint4_linear_2202_8672)"/>
<path d="M94.7635 4.70586H98.9525V7.16523C99.404 6.20123 100.135 5.39558 101.052 4.8533C101.968 4.31101 103.026 4.05723 104.088 4.12501V8.63385H103.888C100.78 8.63385 99.1894 10.1025 99.1894 13.3476V23.458H94.7635V4.70586Z" fill="url(#paint5_linear_2202_8672)"/>
<path d="M102.879 14.0307C102.884 11.3917 103.936 8.86236 105.805 6.9987C107.673 5.13504 110.205 4.08948 112.845 4.0918C115.484 4.09412 118.014 5.14413 119.879 7.01107C121.744 8.87802 122.792 11.4091 122.792 14.0482C122.792 16.6873 121.744 19.2185 119.879 21.0854C118.014 22.9524 115.484 24.0024 112.845 24.0047C110.205 24.007 107.673 22.9615 105.805 21.0978C103.936 19.2341 102.884 16.7048 102.879 14.0657V14.0307ZM107.305 14.0997C107.31 15.6263 107.92 17.0887 109.002 18.1657C110.084 19.2428 111.549 19.8465 113.075 19.8443C114.602 19.842 116.065 19.234 117.144 18.1537C118.222 17.0735 118.828 15.6093 118.828 14.0827C118.828 12.5562 118.222 11.092 117.144 10.0117C116.065 8.93148 114.602 8.32347 113.075 8.32122C111.549 8.31897 110.084 8.92266 109.002 9.99972C107.92 11.0768 107.31 12.5392 107.305 14.0657V14.0997Z" fill="url(#paint6_linear_2202_8672)"/>
<path d="M125.482 4.70566H129.637C129.637 5.52545 129.637 6.31125 129.603 7.19903C130.169 6.18529 131.015 5.3561 132.039 4.81085C133.064 4.26559 134.224 4.02739 135.381 4.12481C141.43 4.1588 142.579 8.8386 142.579 12.1517V23.4579H138.153V13.2835C138.153 10.4842 137.241 8.33073 134.132 8.33073C130.99 8.36472 129.909 10.4822 129.909 13.1125V23.4618H125.483L125.482 4.70566Z" fill="url(#paint7_linear_2202_8672)"/>
<path d="M16.0697 16.1652C15.7244 17.3187 15.0153 18.3297 14.0483 19.0472C13.0813 19.7646 11.9082 20.1502 10.7041 20.1462C9.93908 20.1432 9.18244 19.9869 8.47888 19.6866C7.77532 19.3862 7.13911 18.9478 6.60786 18.3974C6.07662 17.8469 5.6611 17.1956 5.38589 16.4818C5.11067 15.768 4.98134 15.0063 5.00553 14.2417V14.2067C4.97767 13.4394 5.10422 12.6744 5.37767 11.9569C5.65113 11.2395 6.06591 10.5843 6.59741 10.0303C7.12891 9.47621 7.76629 9.03456 8.47174 8.73153C9.17718 8.4285 9.93631 8.27026 10.7041 8.26622C11.6809 8.26087 12.6418 8.51394 13.4893 8.99975C14.3368 9.48557 15.0408 10.1869 15.5298 11.0325L19.5208 8.82107C18.6251 7.29151 17.3333 6.03196 15.7816 5.17524C14.2298 4.31853 12.4757 3.89639 10.7041 3.95333C9.35048 3.92047 8.00422 4.16179 6.74632 4.66276C5.48841 5.16374 4.34486 5.91401 3.38446 6.86843C2.42405 7.82286 1.66666 8.96171 1.15784 10.2165C0.649023 11.4712 0.399305 12.8159 0.423706 14.1697V14.2057C0.391574 15.5651 0.635527 16.9169 1.1408 18.1793C1.64607 19.4418 2.40216 20.5886 3.36335 21.5504C4.32454 22.5123 5.47084 23.2691 6.73292 23.7753C7.99501 24.2814 9.34664 24.5263 10.7061 24.4951C12.7083 24.5599 14.6826 24.012 16.365 22.9245C18.0474 21.8371 19.3577 20.2619 20.1207 18.4096L16.0697 16.1652Z" fill="url(#paint8_linear_2202_8672)"/>
<defs>
<linearGradient id="paint0_linear_2202_8672" x1="25.8186" y1="-47.663" x2="169.728" y2="-15.1513" gradientUnits="userSpaceOnUse">
<stop stop-color="#FF9C17"/>
<stop offset="1" stop-color="#FF00A1"/>
</linearGradient>
<linearGradient id="paint1_linear_2202_8672" x1="27.8261" y1="-46.8147" x2="165.87" y2="12.0119" gradientUnits="userSpaceOnUse">
<stop stop-color="#FF9C17"/>
<stop offset="1" stop-color="#FF00A1"/>
</linearGradient>
<linearGradient id="paint2_linear_2202_8672" x1="5.02119" y1="-1.96306" x2="137.404" y2="74.3391" gradientUnits="userSpaceOnUse">
<stop stop-color="#FF9C17"/>
<stop offset="1" stop-color="#FF00A1"/>
</linearGradient>
<linearGradient id="paint3_linear_2202_8672" x1="8.92399" y1="-11.6166" x2="99.7573" y2="98.3664" gradientUnits="userSpaceOnUse">
<stop stop-color="#FF9C17"/>
<stop offset="1" stop-color="#FF00A1"/>
</linearGradient>
<linearGradient id="paint4_linear_2202_8672" x1="15.489" y1="-24.9845" x2="147.888" y2="51.3119" gradientUnits="userSpaceOnUse">
<stop stop-color="#FF9C17"/>
<stop offset="1" stop-color="#FF00A1"/>
</linearGradient>
<linearGradient id="paint5_linear_2202_8672" x1="18.4699" y1="-32.0586" x2="159.506" y2="-13.5003" gradientUnits="userSpaceOnUse">
<stop stop-color="#FF9C17"/>
<stop offset="1" stop-color="#FF00A1"/>
</linearGradient>
<linearGradient id="paint6_linear_2202_8672" x1="20.8783" y1="-38.0638" x2="154.056" y2="37.4058" gradientUnits="userSpaceOnUse">
<stop stop-color="#FF9C17"/>
<stop offset="1" stop-color="#FF00A1"/>
</linearGradient>
<linearGradient id="paint7_linear_2202_8672" x1="25.529" y1="-46.3056" x2="164.731" y2="15.2226" gradientUnits="userSpaceOnUse">
<stop stop-color="#FF9C17"/>
<stop offset="1" stop-color="#FF00A1"/>
</linearGradient>
<linearGradient id="paint8_linear_2202_8672" x1="-0.48529" y1="7.89422" x2="134.911" y2="78.3258" gradientUnits="userSpaceOnUse">
<stop stop-color="#FF9C17"/>
<stop offset="1" stop-color="#FF00A1"/>
</linearGradient>
</defs>
</svg>
